<!DOCTYPE svg PUBLIC "-//W3C//DTD SVG 1.1//EN" "http://www.w3.org/Graphics/SVG/1.1/DTD/svg11.dtd">
<!-- Uploaded to: SVG Repo, www.svgrepo.com, Transformed by: SVG Repo Mixer Tools -->
<svg fill="#0d0d0d" width="64px" height="64px" viewBox="0 0 24 24" id="clipboard-add-3" data-name="Flat Color" xmlns="http://www.w3.org/2000/svg" class="icon flat-color" stroke="#0d0d0d">
<g id="SVGRepo_bgCarrier" stroke-width="0"/>
<g id="SVGRepo_tracerCarrier" stroke-linecap="round" stroke-linejoin="round"/>
<g id="SVGRepo_iconCarrier">
<path id="primary" d="M15,5H5A2,2,0,0,0,3,7V20a2,2,0,0,0,2,2h8a1,1,0,0,0,1-1V17a2,2,0,0,1,2-2h0a1,1,0,0,0,1-1V7A2,2,0,0,0,15,5Z" style="fill: #fe0b0b;"/>
<path id="secondary" d="M11,18H7a1,1,0,0,1,0-2h4a1,1,0,0,1,0,2Zm3-5a1,1,0,0,0-1-1H7a1,1,0,0,0,0,2h6A1,1,0,0,0,14,13ZM12,4A2,2,0,0,0,8,4H7A1,1,0,0,0,6,5V7A1,1,0,0,0,7,8h6a1,1,0,0,0,1-1V5a1,1,0,0,0-1-1Zm8,14H19V17a1,1,0,0,0-2,0v1H16a1,1,0,0,0,0,2h1v1a1,1,0,0,0,2,0V20h1a1,1,0,0,0,0-2Z" style="fill: #fe0b0b;"/>
</g>
</svg>